<svg id="Layer_1" width="100px" height="100%" data-name="Layer 1" xmlns="http://www.w3.org/2000/svg" viewBox="0 0 500 90.3"><defs><style>.cls-1{fill:#fcaf17;}</style></defs><polygon class="cls-1" points="285.57 90.29 305.41 90.29 305.41 70.35 235.02 0 215.12 0 215.12 19.89 240.37 45.12 215.12 70.35 215.12 90.29 234.97 90.29 260.27 65.01 285.57 90.29"/><rect class="cls-1" x="281.45" width="23.96" height="23.96"/><path class="cls-1" d="M472.2,162.47l8.74,18.11h18.89v-20L468.5,92.43l-.94-2.14H442.14l-.93,2.13-31.67,68.19v20h18.54l8.68-18.11Zm-17.51-47.15,11.41,27.09H443.27Z" transform="translate(-90.29 -90.29)"/><path class="cls-1" d="M263.94,162.47l8.74,18.11h18.89v-20L260.24,92.43l-.94-2.14H233.88L233,92.42l-31.67,68.19v20h18.55l9.07-18.11Zm-17.51-47.15,11.41,27.09H235Z" transform="translate(-90.29 -90.29)"/><path class="cls-1" d="M545.91,147.47l.24.29,27.05,32.56h16.7V163.65l-16.72-19.28,2.14-1a27,27,0,0,0,9.16-7.31c3.86-4.71,5.81-10.64,5.81-17.62,0-9-3-16.09-8.91-21S568,90.3,558.56,90.3H514.75v90.29h22.41V146.86h8.23Zm-8.75-21V110.29h22.66a8.11,8.11,0,0,1,0,16.22H537.16Z" transform="translate(-90.29 -90.29)"/><polygon class="cls-1" points="73.67 90.29 96.08 90.29 96.07 0 71.99 0 70.43 2.38 48.04 38.75 25.63 2.36 24.08 0 0 0 0.01 90.29 22.42 90.29 22.42 43.38 39.07 72.18 57.03 72.18 73.67 43.38 73.67 90.29"/></svg>